.
 
http://www.scenetime.com    -  Hottest private tracker on the net. !!!

New release on http://www.scenetime.com

        Seed back for speed


...................................NFO:.................................................General
Complete name                    : Pacquiao_Marquez.HBO.Ring.Life.XviD-hAcKeR.avi
Format                           : AVI
Format/Info                      : Audio Video Interleave
File size                        : 214 MiB
Duration                         : 11mn 55s
Overall bit rate                 : 2 506 Kbps
Writing application              : Lavf52.39.1

Video
ID                               : 0
Format                           : xvid
Codec ID                         : xvid
Duration                         : 11mn 55s
Bit rate                         : 2 429 Kbps
Width                            : 710 pixels
Height                           : 352 pixels
Display aspect ratio             : 2.017
Frame rate                       : 25.000 fps
Bits/(Pixel*Frame)               : 0.389
Stream size                      : 207 MiB (97%)

Audio
ID                               : 1
Format                           : MPEG Audio
Format version                   : Version 1
Format profile                   : Layer 3
Mode                             : Joint stereo
Mode extension                   : MS Stereo
Codec ID                         : 55
Codec ID/Hint                    : MP3
Duration                         : 11mn 55s
Bit rate mode                    : Constant
Bit rate                         : 64.0 Kbps
Channel(s)                       : 2 channels
Sampling rate                    : 48.0 KHz
Compression mode                 : Lossy
Stream size                      : 5.46 MiB (3%)
Alignment                        : Aligned on interleaves
Interleave, duration             : 24 ms (0.60 video frame)
Interleave, preload duration     : 24 ms